<?xml version="1.0" encoding="UTF-8"?>
<svg width="128" height="128" viewBox="0 0 128 128" fill="none" xmlns="http://www.w3.org/2000/svg">
  <!-- Background Circle -->
  <circle cx="64" cy="64" r="60" fill="#007ACC"/>
  <circle cx="64" cy="64" r="56" fill="#FFFFFF"/>
  
  <!-- Clock Face -->
  <circle cx="64" cy="64" r="42" stroke="#007ACC" stroke-width="3" fill="none"/>
  
  <!-- Clock Ticks -->
  <line x1="64" y1="26" x2="64" y2="32" stroke="#16A085" stroke-width="2" stroke-linecap="round"/>
  <line x1="64" y1="96" x2="64" y2="102" stroke="#16A085" stroke-width="2" stroke-linecap="round"/>
  <line x1="26" y1="64" x2="32" y2="64" stroke="#16A085" stroke-width="2" stroke-linecap="round"/>
  <line x1="96" y1="64" x2="102" y2="64" stroke="#16A085" stroke-width="2" stroke-linecap="round"/>
  
  <!-- Clock Hands -->
  <line x1="64" y1="64" x2="64" y2="40" stroke="#F39C12" stroke-width="3" stroke-linecap="round"/>
  <line x1="64" y1="64" x2="80" y2="64" stroke="#F39C12" stroke-width="3" stroke-linecap="round"/>
  
  <!-- Center Dot -->
  <circle cx="64" cy="64" r="4" fill="#F39C12"/>
  
  <!-- Git Branch (simplified) -->
  <g transform="translate(85, 85)">
    <circle cx="0" cy="0" r="6" fill="#16A085" stroke="#007ACC" stroke-width="2"/>
    <line x1="0" y1="-6" x2="0" y2="-20" stroke="#16A085" stroke-width="2"/>
    <circle cx="0" cy="-20" r="5" fill="#16A085" stroke="#007ACC" stroke-width="2"/>
    <line x1="0" y1="-20" x2="12" y2="-32" stroke="#16A085" stroke-width="2"/>
    <circle cx="12" cy="-32" r="4" fill="#16A085" stroke="#007ACC" stroke-width="2"/>
  </g>
  
  <!-- Decorative Arrows (time travel effect) -->
  <g opacity="0.6">
    <path d="M 40 50 L 35 45 L 40 40" stroke="#007ACC" stroke-width="2" fill="none" stroke-linecap="round"/>
    <path d="M 88 78 L 93 83 L 88 88" stroke="#007ACC" stroke-width="2" fill="none" stroke-linecap="round"/>
  </g>
</svg>

